<svg width="16" height="14" viewBox="0 0 16 14" fill="none" xmlns="http://www.w3.org/2000/svg">
<path d="M6.99934 13.75C6.9008 13.7505 6.80316 13.7313 6.71215 13.6935C6.62113 13.6557 6.53858 13.6001 6.46934 13.53L0.46934 7.53003C0.328889 7.3894 0.25 7.19878 0.25 7.00003C0.25 6.80128 0.328889 6.61066 0.46934 6.47003L6.46934 0.470029C6.61152 0.337549 6.79956 0.265426 6.99386 0.268855C7.18816 0.272283 7.37355 0.350995 7.51096 0.488408C7.64837 0.625821 7.72709 0.811206 7.73052 1.00551C7.73394 1.19981 7.66182 1.38785 7.52934 1.53003L2.05934 7.00003L7.52934 12.47C7.66979 12.6107 7.74868 12.8013 7.74868 13C7.74868 13.1988 7.66979 13.3894 7.52934 13.53C7.4601 13.6001 7.37755 13.6557 7.28653 13.6935C7.19552 13.7313 7.09788 13.7505 6.99934 13.75Z" fill="#F5F5F5"/>
<path d="M15 7.75H1C0.801088 7.75 0.610322 7.67098 0.46967 7.53033C0.329018 7.38968 0.25 7.19891 0.25 7C0.25 6.80109 0.329018 6.61032 0.46967 6.46967C0.610322 6.32902 0.801088 6.25 1 6.25H15C15.1989 6.25 15.3897 6.32902 15.5303 6.46967C15.671 6.61032 15.75 6.80109 15.75 7C15.75 7.19891 15.671 7.38968 15.5303 7.53033C15.3897 7.67098 15.1989 7.75 15 7.75Z" fill="#F5F5F5"/>
</svg>
