<svg width="46" height="14" viewBox="0 0 46 14" fill="none" xmlns="http://www.w3.org/2000/svg">
<path d="M45 4.26604C35.9002 3.37702 26.8787 1.71935 17.7623 1.35044C12.522 1.13839 -3.14905 0.517647 2.03805 1.71489C10.564 3.68277 19.3756 3.61954 27.96 4.94289C31.286 5.45563 34.5853 6.14291 37.8945 6.86927C39.168 7.1488 40.1625 7.62115 38.1248 7.44198C29.0299 6.64229 19.9821 4.86513 10.887 4.00573C9.91645 3.91402 7.04086 3.86932 7.97575 4.29208C11.4026 5.84169 15.0789 6.45219 18.5846 7.31182C22.8062 8.34698 27.0961 8.99347 31.2824 10.3576C32.7862 10.8476 34.8003 11.0005 36.2004 11.9976C38.6779 13.7622 30.775 12.6769 28.0587 12.5964C23.5379 12.4623 19.0224 12.0493 14.5056 11.7633" stroke="#F77C7C" stroke-width="0.8" stroke-linecap="round"/>
</svg>
