<svg width="20" height="20" viewBox="0 0 20 20" fill="none" xmlns="http://www.w3.org/2000/svg">
<circle cx="10" cy="10" r="8.5" stroke="#A9A9A9"/>
<path d="M9.37644 14.0001V8.0841H10.6124V14.0001H9.37644ZM10.0004 7.2801C9.76044 7.2801 9.55644 7.2041 9.38844 7.0521C9.22844 6.8921 9.14844 6.6881 9.14844 6.4401C9.14844 6.1921 9.22844 5.9921 9.38844 5.8401C9.55644 5.6801 9.76044 5.6001 10.0004 5.6001C10.2484 5.6001 10.4524 5.6801 10.6124 5.8401C10.7724 5.9921 10.8524 6.1921 10.8524 6.4401C10.8524 6.6881 10.7724 6.8921 10.6124 7.0521C10.4524 7.2041 10.2484 7.2801 10.0004 7.2801Z" fill="#A9A9A9"/>
</svg>
