<svg width="343" height="200" viewBox="0 0 343 200" fill="none" xmlns="http://www.w3.org/2000/svg">
<rect width="343" height="200" rx="16" fill="#2E41F2"/>
<g clip-path="url(#clip0_266_1000)">
<mask id="mask0_266_1000" style="mask-type:alpha" maskUnits="userSpaceOnUse" x="116" y="46" width="112" height="121">
<path fill-rule="evenodd" clip-rule="evenodd" d="M199.995 166.401C199.995 156.077 205.954 146.917 212.96 139.342C222.119 129.438 227.718 116.184 227.718 101.621C227.718 70.9546 202.894 46.0946 172.272 46.0946C141.65 46.0946 116.826 70.9546 116.826 101.621C116.826 116.184 122.425 129.438 131.584 139.342C138.589 146.917 144.549 156.077 144.549 166.401H199.995Z" fill="#4355F7"/>
</mask>
<g mask="url(#mask0_266_1000)">
<path d="M221.352 101.621C221.352 114.516 216.402 126.238 208.29 135.01L217.631 143.674C227.837 132.638 234.084 117.853 234.084 101.621H221.352ZM172.272 52.4697C199.378 52.4697 221.352 74.4756 221.352 101.621H234.084C234.084 67.434 206.41 39.7197 172.272 39.7197V52.4697ZM123.192 101.621C123.192 74.4756 145.166 52.4697 172.272 52.4697V39.7197C138.135 39.7197 110.461 67.434 110.461 101.621H123.192ZM136.255 135.01C128.142 126.238 123.192 114.516 123.192 101.621H110.461C110.461 117.853 116.708 132.638 126.914 143.674L136.255 135.01ZM199.995 160.027H144.55V172.777H199.995V160.027ZM126.914 143.674C133.593 150.896 138.184 158.535 138.184 166.402H150.915C150.915 153.619 143.586 142.937 136.255 135.01L126.914 143.674ZM208.29 135.01C200.959 142.937 193.63 153.619 193.63 166.402H206.361C206.361 158.535 210.951 150.896 217.631 143.674L208.29 135.01Z" fill="#18F38A"/>
</g>
<path d="M149.323 173.812H195.263" stroke="#18F38A" stroke-width="6.375"/>
<path d="M171.604 23.15V38.0591" stroke="#18F38A" stroke-width="6.375"/>
<path d="M112.476 47.6337L123.025 58.1864" stroke="#18F38A" stroke-width="6.375"/>
<path d="M88 106.781H102.904" stroke="#18F38A" stroke-width="6.375"/>
<path d="M255.207 106.781H240.303" stroke="#18F38A" stroke-width="6.375"/>
<path d="M230.732 47.6337L220.183 58.1864" stroke="#18F38A" stroke-width="6.375"/>
</g>
<defs>
<clipPath id="clip0_266_1000">
<rect width="167.207" height="153" fill="white" transform="translate(88 24)"/>
</clipPath>
</defs>
</svg>
