<svg width="18" height="18" viewBox="0 0 18 18" fill="none" xmlns="http://www.w3.org/2000/svg">
<path d="M9.00033 0.666748C4.40533 0.666748 0.666992 4.40508 0.666992 9.00008C0.666992 13.5951 4.40533 17.3334 9.00033 17.3334C13.5953 17.3334 17.3337 13.5951 17.3337 9.00008C17.3337 4.40508 13.5953 0.666748 9.00033 0.666748ZM9.00033 15.6667C5.32449 15.6667 2.33366 12.6759 2.33366 9.00008C2.33366 5.32425 5.32449 2.33341 9.00033 2.33341C12.6762 2.33341 15.667 5.32425 15.667 9.00008C15.667 12.6759 12.6762 15.6667 9.00033 15.6667Z" fill="#0E0E0E"/>
<path d="M6.08366 9.00008C6.77401 9.00008 7.33366 8.44044 7.33366 7.75008C7.33366 7.05973 6.77401 6.50008 6.08366 6.50008C5.3933 6.50008 4.83366 7.05973 4.83366 7.75008C4.83366 8.44044 5.3933 9.00008 6.08366 9.00008Z" fill="#0E0E0E"/>
<path d="M11.9112 8.98841C12.5983 8.98841 13.1553 8.43138 13.1553 7.74425C13.1553 7.05711 12.5983 6.50008 11.9112 6.50008C11.224 6.50008 10.667 7.05711 10.667 7.74425C10.667 8.43138 11.224 8.98841 11.9112 8.98841Z" fill="#0E0E0E"/>
<path d="M9.00033 14.0001C12.3337 14.0001 13.167 10.6667 13.167 10.6667H4.83366C4.83366 10.6667 5.66699 14.0001 9.00033 14.0001Z" fill="#0E0E0E"/>
</svg>
