<svg width="64" height="64" viewBox="0 0 64 64" fill="none" xmlns="http://www.w3.org/2000/svg">
<rect width="64" height="64" rx="32" fill="#F5F5F5"/>
<g clip-path="url(#clip0_529_1366)">
<path fill-rule="evenodd" clip-rule="evenodd" d="M14.9099 24.5162L22.6707 29.8066L27.8447 26.1994L30.173 24.5162L22.4121 19.2259L14.9099 24.5162ZM34.3121 24.5162L42.073 29.8066L49.8339 24.5162L42.073 19.2259L34.3121 24.5162ZM33.536 35.0968L37.4165 37.742L40.7795 40.1466V31.7302L33.536 26.6804V35.0968ZM14.1338 35.0968L21.3773 40.1466V31.7302L14.1338 26.6804V35.0968ZM29.3969 27.8827L23.7056 31.7302V40.1466L30.949 35.0968V26.6804L29.3969 27.8827ZM50.3512 26.6804L43.1077 31.7302V40.1466L50.3512 35.0968V26.6804ZM40.0034 42.5514L35.8642 39.6657L32.2425 37.2611L24.4816 42.5514L32.2425 47.8417L40.0034 42.5514ZM32.2425 23.0734L41.2969 16.8212C41.2969 16.8212 41.2969 16.8212 41.5556 16.8212C41.8143 16.8212 41.8143 16.8212 42.073 16.8212C42.3316 16.8212 42.3316 16.8212 42.5904 16.8212C42.5904 16.8212 42.5904 16.8212 42.849 16.8212L52.4208 23.5543L52.6795 23.7948C52.6795 24.0353 52.9381 24.0353 52.9381 24.2757C52.9381 24.2757 52.9381 24.2757 52.9381 24.5162V35.8182V36.0587C52.9381 36.2992 52.6795 36.2992 52.6795 36.5396C52.6795 36.5396 52.6795 36.5396 52.4208 36.7801L42.5904 43.5133L33.0186 50.2463C33.0186 50.2463 32.7599 50.2463 32.7599 50.4869C32.5012 50.4869 32.2425 50.4869 31.9839 50.4869C31.9839 50.4869 31.7251 50.4869 31.7251 50.2463L21.8947 43.5133L12.0643 36.5396C12.0643 36.5396 12.0643 36.5396 11.8056 36.2992C11.8056 36.0587 11.5469 36.0587 11.5469 35.8182C11.5469 35.8182 11.5469 36.0587 11.5469 35.8182V24.5162C11.5469 24.5162 11.5469 24.5162 11.5469 24.2757C11.5469 24.0353 11.5469 24.0353 11.8056 23.7948L12.0643 23.5543L21.8947 16.8212C21.8947 16.8212 21.8947 16.8212 22.1534 16.8212C22.4121 16.8212 22.4121 16.8212 22.6707 16.8212C22.6707 16.8212 22.6707 16.8212 22.9295 16.8212C23.1883 16.8212 23.1883 16.8212 23.4469 17.0616L32.2425 23.0734Z" fill="#0E0E0E"/>
</g>
<defs>
<clipPath id="clip0_529_1366">
<rect width="42" height="35" fill="white" transform="translate(11 16)"/>
</clipPath>
</defs>
</svg>
